# xmcd
#
# Track frame offsets:
#	150
#	17256
#	40925
#	60158
#	77186
#	91196
#	103688
#	117676
#	127999
#	141642
#
# Disc length: 2046 seconds
#
# Revision: 1
# Processed by: cddbd v1.5.1PL0 Copyright (c) Steve Scherf et al.
# Submitted via: audiograbber 1.83.01
#
DISCID=7e07fc0a
DTITLE=House of Blues - Essential Chicago Blues
DYEAR=1900
DGENRE=Blues
TTITLE0=Billy Boy Arnold - Don't Stay Out All Night
TTITLE1=Koko Taylor - I Cried Like  Baby
TTITLE2=Big John Wrencher - Maxwell Street Alley Blues
TTITLE3=Otis Spann - It Must Have Been the Devil
TTITLE4=Bo Diddley - Before You Accuse Me
TTITLE5=Muddy Waters - Hoochi Coochi Man
TTITLE6=Howlin' Wolf - Smokestack Lightning
TTITLE7=Junior Wells - Messin' With the Kid
TTITLE8=Buddy Guy - Sit and Cry
TTITLE9=Jimmy Reed - Hush Hush
EXTD=can't believe this is not in db, this disk may be damaged
EXTT0=
EXTT1=
EXTT2=
EXTT3=
EXTT4=
EXTT5=
EXTT6=
EXTT7=
EXTT8=
EXTT9=
PLAYORDER=
